<?xml version="1.0" encoding="UTF-8"?>
<svg id="Capa_2" data-name="Capa 2" xmlns="http://www.w3.org/2000/svg" viewBox="0 0 696.28 693.8">
  <defs>
    <style>
      .cls-1 {
        fill: #8b5cf6;
        stroke-width: 0px;
      }
    </style>
  </defs>
  <g id="Layer_1" data-name="Layer 1">
    <g>
      <path class="cls-1" d="m664.37,270.74c-7.04,10.56-14.73,21.27-22.99,32.09,2.14,14.38,3.27,29.1,3.27,44.07,0,164.17-133.57,297.74-297.74,297.74-39.74,0-77.68-7.85-112.37-22.04-22.14,9.75-43.17,17.63-62.85,23.59,51.46,30.24,111.34,47.61,175.22,47.61,191.28,0,346.91-155.62,346.91-346.91,0-34.66-5.13-68.15-14.64-99.76-4.51,7.69-9.43,15.55-14.8,23.59v.02Z"/>
      <path class="cls-1" d="m57.67,460.85c2.91-4.37,5.93-8.76,9.06-13.17-11.36-31.49-17.57-65.42-17.57-100.77,0-164.17,133.57-297.74,297.74-297.74,60.83,0,117.45,18.35,164.64,49.79,20.19-7.94,39.28-14.16,57.08-18.64C508.46,30.19,431.15,0,346.91,0,155.62,0,0,155.62,0,346.91c0,54.35,12.58,105.81,34.95,151.65,6.45-12.08,14.03-24.67,22.72-37.7h0Z"/>
      <path class="cls-1" d="m454.97,475.74c81.38-63.88,137.68-135.56,181.91-196.51,13.82-19.04,25.44-37.37,34.64-54.64,26.23-49.22,32.75-89.82,14.09-113.59-11.41-14.54-31.18-21.43-57.18-21.43-13.04,0-27.68,1.77-43.59,5.14-17.29,3.66-36.08,9.22-56.1,16.61-73.37,27.11-162.76,78.49-251.31,148-88.12,69.18-158.98,143.43-202.79,208.04-11.93,17.6-21.87,34.48-29.59,50.35-21.59,44.39-25.91,80.86-8.62,102.89,11.41,14.54,31.18,21.43,57.18,21.43,16.9,0,36.45-2.93,58.03-8.54,18.92-4.92,39.42-11.91,61.11-20.83,69.43-28.56,161.35-73.43,242.23-136.91h-.01Zm-164.95-198.73c88.06-69.12,214.16-122.89,269.65-122.9,20.33,0,35.94,5.47,45.01,17.03,25.4,32.36-33.93,133.64-102.87,206.9-10.32-19.19-30.59-32.24-53.91-32.24-33.78,0-61.17,27.39-61.17,61.17,0,20.91,10.5,39.36,26.5,50.39-85.29,65.05-187.88,98.36-241.55,98.36-20.32,0-35.93-5.47-45.01-17.03-33.85-43.13,43.03-167.24,163.34-261.68h0Z"/>
    </g>
  </g>
</svg>