<svg width="35" height="35" viewBox="0 0 35 35" fill="none" xmlns="http://www.w3.org/2000/svg">
<path d="M10.2071 1.53665C13.1329 0.223773 16.4245 -0.261812 19.6154 0.13385C22.9069 0.529512 26.0613 1.89635 28.6031 3.98256C27.6065 4.22536 26.6374 4.56706 25.6773 4.91777C23.1538 3.22721 20.0726 2.37294 17.0279 2.46286C14.0655 2.5348 11.1306 3.51496 8.72594 5.2235C6.15672 7.03096 4.20009 9.65672 3.23092 12.6062C2.19774 15.6816 2.26174 19.0897 3.37721 22.1291C2.79204 22.9474 2.24346 23.7927 1.75887 24.6649C0.561119 22.246 -0.0514714 19.5483 0.00338744 16.8596C0.0308169 13.4785 1.14628 10.1243 3.1212 7.35469C4.89497 4.84583 7.37276 2.81356 10.198 1.54564L10.2071 1.53665Z" fill="#7C3AED"/>
<path d="M30.2852 4.51316C31.3093 4.36928 32.3882 4.3423 33.3848 4.702C34.1071 4.96277 34.7105 5.57425 34.8934 6.32062C35.1311 7.26481 34.9391 8.23598 34.6374 9.1442C33.8145 11.5002 32.2693 13.5145 30.7515 15.4838C28.0086 19.0537 24.7994 22.309 21.0507 24.8448C18.0243 26.913 14.751 28.5946 11.3681 30.0064C9.48459 30.7977 7.51882 31.4901 5.46161 31.697C4.46501 31.7779 3.4044 31.7419 2.50838 31.2383C1.8775 30.8966 1.46606 30.2492 1.3472 29.5568C1.21919 28.7295 1.36548 27.8932 1.62149 27.1109C2.02379 25.8789 2.66381 24.7369 3.35869 23.6488C4.92217 21.2569 6.85137 19.1347 8.89029 17.1384C11.6515 14.4856 14.6688 12.0937 17.878 9.98948C20.6209 8.209 23.501 6.60837 26.5823 5.47534C27.78 5.04371 29.0143 4.693 30.2761 4.51316M24.1319 8.52373C22.0747 9.25211 20.1181 10.2053 18.2254 11.2754C15.3271 12.921 12.7121 15.0342 10.4538 17.4441C8.97258 19.0537 7.60111 20.7893 6.6685 22.7676C6.25706 23.6848 5.90048 24.6739 6.0102 25.6901C6.09249 26.3465 6.54964 26.931 7.17138 27.1738C8.14055 27.5695 9.2103 27.4346 10.2252 27.2817C12.4104 26.904 14.5042 26.1307 16.4882 25.1685C17.9694 24.4312 19.4049 23.5859 20.7307 22.5877C19.6243 21.8324 19.1397 20.3576 19.5878 19.1077C20.0175 17.7858 21.4712 16.8866 22.8701 17.0844C23.8485 17.1833 24.7353 17.7948 25.2108 18.6311C25.988 17.8488 26.692 16.9855 27.3686 16.1222C28.3286 14.8633 29.2155 13.5415 29.8921 12.1117C30.2487 11.3473 30.5687 10.538 30.651 9.70173C30.6967 9.20715 30.5961 8.64963 30.2029 8.28993C29.5446 7.66946 28.5755 7.57954 27.716 7.63349C26.4817 7.7414 25.2839 8.11009 24.1228 8.50575V8.52373H24.1319Z" fill="#7C3AED"/>
<path d="M32.2144 14.9622C32.9001 14.072 33.5585 13.1457 34.1345 12.1836C35.4694 16.4729 34.9939 21.2928 32.8087 25.2404C31.0715 28.4237 28.3011 31.0495 24.9913 32.5961C22.7878 33.6482 20.3466 34.2148 17.8871 34.2867C14.6504 34.3676 11.3955 33.5493 8.61597 31.9307C9.68571 31.589 10.7463 31.2113 11.7795 30.7527C13.8001 31.553 15.9945 31.9397 18.1705 31.8228C20.9866 31.6969 23.757 30.7437 26.0519 29.1431C27.9446 27.8212 29.5263 26.0677 30.6235 24.0534C32.1321 21.3018 32.6899 18.0645 32.2144 14.9712V14.9622Z" fill="#7C3AED"/>
</svg>
